<svg xmlns="http://www.w3.org/2000/svg" xmlns:xlink="http://www.w3.org/1999/xlink" width="250" height="250" version="1">
  <path d="M125 5c32.1 0 62.2 12.5 84.9 35.1S245 92.9 245 125s-12.5 62.2-35.1 84.9S157.1 245 125 245s-62.2-12.5-84.9-35.1S5 157.1 5 125s12.5-62.2 35.1-84.9S92.9 5 125 5m0-5C56 0 0 56 0 125s56 125 125 125 125-56 125-125S194 0 125 0z"/>
  <path id="a" fill="none" d="M0 135.8h250"/>
  <text font-family="Verdana" font-size="32" text-anchor="middle">
    <textPath startOffset="50%" xlink:href="#a"> example </textPath>
  </text>
  <path id="b" fill="none" d="M29.1 125c0 53 43 95.9 95.9 95.9 53 0 95.9-43 95.9-95.9"/>
  <text font-family="Verdana" font-size="32" text-anchor="middle">
    <textPath startOffset="50%" xlink:href="#b"> first </textPath>
  </text>
  <path id="c" fill="none" d="M46.4 125c0-43.4 35.2-78.6 78.6-78.6s78.6 35.2 78.6 78.6"/>
  <text font-family="Verdana" font-size="32" text-anchor="middle">
    <textPath startOffset="50%" xlink:href="#c"> second </textPath>
  </text>
</svg>
